<svg xmlns="http://www.w3.org/2000/svg" viewBox="0 0 512.1 511.9"><defs>
            <linearGradient id="PinkOrangeGradient">
                <stop offset="5%"  stop-color="#F23C6A"/>
                <stop offset="95%" stop-color="#F2693C"/>
            </linearGradient>
    </defs><title>Email</title>
    <path d="M97.2,116.6c99.9,66.9,142.4,96.9,158.8,96.9h0c16.4,0,58.8-30,158.6-97.1,35.8-24.1,68.2-48.3,88.2-63.6a23.73,23.73,0,0,0,9.3-18.9v1.6A35.51,35.51,0,0,0,476.6,0H35.5A35.51,35.51,0,0,0,0,35.5v-1A23.73,23.73,0,0,0,9.3,53.4C29.4,68.8,61.6,92.8,97.2,116.6Z"/>
    <path d="M439.7,233.8c-84.8,57-144.9,104.7-183.6,104.7H256c-38.8,0-99-47.7-184.1-104.7-24.2-16.2-46.7-32.4-65.1-46A4.31,4.31,0,0,0,0,191.2V476.4a35.51,35.51,0,0,0,35.5,35.5H476.4a35.51,35.51,0,0,0,35.5-35.5V190.7a4.19,4.19,0,0,0-6.7-3.4C486.8,201,464.1,217.3,439.7,233.8Z"/>
    <path class="cls-1" d="M502.8,52.6c-19.9,15.3-52.3,39.6-88.2,63.6-99.8,67-142.2,97.1-158.6,97.1h0c-16.4,0-58.9-30-158.8-96.9C61.7,92.6,29.4,68.6,9.3,53.2A23.73,23.73,0,0,1,0,34.3V84.5a23.73,23.73,0,0,0,9.3,18.9c20.1,15.4,52.3,39.4,87.9,63.2,99.9,66.9,142.4,96.9,158.8,96.9h0c16.4,0,58.8-30,158.6-97.1,35.8-24.1,68.2-48.3,88.2-63.6a23.73,23.73,0,0,0,9.3-18.9V33.7A23.73,23.73,0,0,1,502.8,52.6Z"/></svg>