<svg xmlns="http://www.w3.org/2000/svg" viewBox="0 0 511.9 511.8" style="enable-background:new 0 0 511.9 511.8;" xml:space="preserve">
    <polygon fill="#ffffff" points="304.5,403 304.5,228.5 383.7,228.5 256,90.4 128.2,228.5 207.4,228.5 207.4,403 "/>
    <title>Scroll to Top</title>
    <path fill="currentColor" d="M476.4,0H35.5C15.9,0,0,15.9,0,35.5v440.8c0,19.6,15.9,35.5,35.5,35.5h440.9c19.6,0,35.5-15.9,35.5-35.5V35.6
	C511.9,16,496.1,0,476.4,0C476.4,0,476.4,0,476.4,0z M304.5,228.5V403h-97.1V228.5h-79.2L256,90.4l127.7,138.2H304.5z"/>
</svg>
