<svg xmlns="http://www.w3.org/2000/svg" viewBox="0 0 511.9 511.8"><title>Projects</title><g id="Layer_2" data-name="Layer 2"><g id="Layer_1-2" data-name="Layer 1"><path fill="currentColor" d="M511.9,165.6v-20A35.53,35.53,0,0,0,476.4,110s-22.07-6.1-92.84-9.81C377,66.11,334.12,0,256,0c-77.5,0-120.68,66.21-127.48,100.26C58.64,104,35.5,110,35.5,110A35.51,35.51,0,0,0,0,145.5V476.3H0a35.51,35.51,0,0,0,35.5,35.5H476.4a35.51,35.51,0,0,0,35.5-35.5V165.6Zm-252.31-132c45.12,0,81.09,39.35,86.71,65.05-21.6-.73-65.14-1.18-90.35-1.18-24.76,0-68.06.46-89.57,1.19C173.07,72.92,211.22,33.55,259.59,33.55Z"/></g></g></svg>