<svg xmlns="http://www.w3.org/2000/svg" viewBox="0 0 512.1 511.9"><title>Contact</title><g id="Layer_2" data-name="Layer 2"><g id="Layer_1-2" data-name="Layer 1"><g id="square-envelope"><path fill="currentColor" d="M97.2,166.6c99.9,66.9,142.4,96.9,158.8,96.9h0c16.4,0,58.8-30,158.6-97.1,35.8-24.1,68.2-48.3,88.2-63.6a23.73,23.73,0,0,0,9.3-18.9V35.5A35.51,35.51,0,0,0,476.6,0H35.5A35.51,35.51,0,0,0,0,35.5v49a23.73,23.73,0,0,0,9.3,18.9C29.4,118.8,61.6,142.8,97.2,166.6Z"/><path fill="currentColor" d="M439.7,233.8c-84.8,57-144.9,104.7-183.6,104.7H256c-38.8,0-99-47.7-184.1-104.7-24.2-16.2-46.7-32.4-65.1-46A4.31,4.31,0,0,0,0,191.2V476.4a35.51,35.51,0,0,0,35.5,35.5H476.4a35.51,35.51,0,0,0,35.5-35.5V190.7a4.19,4.19,0,0,0-6.7-3.4C486.8,201,464.1,217.3,439.7,233.8Z"/></g></g></g></svg>