<svg xmlns="http://www.w3.org/2000/svg" viewBox="0 0 511.9 511.8"><defs><style>.cls-1{fill:#f2693c;}</style></defs><title>l-in</title><g id="Layer_2" data-name="Layer 2"><g id="Layer_1-2" data-name="Layer 1"><path d="M476.4,0H35.5A35.51,35.51,0,0,0,0,35.5V476.3a35.51,35.51,0,0,0,35.5,35.5H476.4a35.51,35.51,0,0,0,35.5-35.5V35.6A35.53,35.53,0,0,0,476.4,0Zm-320,423.3H81.7V182.7h74.7ZM119,149.9c-23.9,0-43.3-19.8-43.3-43.7a43.3,43.3,0,0,1,86.6,0C162.3,130.1,142.9,149.9,119,149.9ZM436.1,423.3H361.5V306.2c0-27.9-.6-63.7-38.8-63.7-38.8,0-44.8,30.3-44.8,61.7V423.3H203.3V182.7H275v32.8h1c10-18.9,34.3-38.8,70.7-38.8,75.6,0,89.5,49.8,89.5,114.4V423.3Z"/><path class="cls-1" d="M119.2,130.44A43.5,43.5,0,0,1,76.81,96.67a43.5,43.5,0,1,0,84.78,0A43.5,43.5,0,0,1,119.2,130.44Z"/><path class="cls-1" d="M363.34,411.56c-.62,0-1.23,0-1.84-.05V423.3h74.6V350.19A73.84,73.84,0,0,1,363.34,411.56Z"/></g></g></svg>