<svg xmlns="http://www.w3.org/2000/svg" viewBox="0 0 510.77 510.47"><title>Projects</title><path fill="currentColor" d="M307.09,240.9H473.51a37.26,37.26,0,0,0,37.26-37.27V35.6A35.52,35.52,0,0,0,475.27,0H307.09a37.26,37.26,0,0,0-37.26,37.27V203.63A37.26,37.26,0,0,0,307.09,240.9Z"/><path fill="currentColor" d="M37.27,240.9H203.68A37.26,37.26,0,0,0,241,203.63V35.6A35.53,35.53,0,0,0,205.45,0H37.27A37.26,37.26,0,0,0,0,37.27V203.63A37.26,37.26,0,0,0,37.27,240.9Z"/><path fill="currentColor" d="M37.27,510.47H203.68A37.27,37.27,0,0,0,241,473.2v-168a35.53,35.53,0,0,0-35.5-35.6H37.27A37.26,37.26,0,0,0,0,306.83V473.2A37.27,37.27,0,0,0,37.27,510.47Z"/><path fill="currentColor" d="M307.09,510.47H473.51a37.27,37.27,0,0,0,37.26-37.27v-168a35.52,35.52,0,0,0-35.5-35.6H307.09a37.26,37.26,0,0,0-37.26,37.26V473.2A37.27,37.27,0,0,0,307.09,510.47Z"/></svg>