<svg xmlns="http://www.w3.org/2000/svg" viewBox="0 0 512 512"><title>linkedin</title><g id="Layer_2" data-name="Layer 2"><g id="Layer_1-2" data-name="Layer 1"><path d="M476.46,0H35.54A35.54,35.54,0,0,0,0,35.54V476.46A35.54,35.54,0,0,0,35.54,512H476.46A35.54,35.54,0,0,0,512,476.46V35.54A35.54,35.54,0,0,0,476.46,0Zm-320,423.27H81.76V182.72h74.72Zm-37.4-273.36c-23.89,0-43.27-19.78-43.27-43.67a43.27,43.27,0,0,1,86.54,0C162.35,130.13,143,149.91,119.08,149.91ZM436.19,423.27H361.56V306.17c0-27.9-.57-63.69-38.85-63.69-38.84,0-44.79,30.32-44.79,61.68V423.27H203.28V182.72h71.66v32.82H276c10-18.9,34.34-38.85,70.69-38.85,75.6,0,89.51,49.78,89.51,114.45Z"/></g></g></svg>