<?xml version="1.0" encoding="UTF-8"?>
<svg width="22px" height="19px" viewBox="0 0 22 19" version="1.1" xmlns="http://www.w3.org/2000/svg" xmlns:xlink="http://www.w3.org/1999/xlink">
    <!-- Generator: Sketch 48.2 (47327) - http://www.bohemiancoding.com/sketch -->
    <title>Group 2 Copy 2</title>
    <desc>Created with Sketch.</desc>
    <defs></defs>
    <g id="nav-icons" stroke="none" stroke-width="1" fill="none" fill-rule="evenodd" transform="translate(-308.000000, -195.000000)">
        <g id="Group-2-Copy-2" transform="translate(308.000000, 196.000000)">
            <path d="M5.24117378,5.10802601 C5.24117378,-1.5265927 16.2617001,-1.87651109 16.2766227,5.10802601 C8.90201236,5.19515984 5.22352937,5.19515984 5.24117378,5.10802601 Z" id="Path-7" stroke="#FFFFFF" stroke-width="2"></path>
            <path d="M0.567481776,4.47804674 C5.06263567,4.27493317 8.44108531,4.17337639 10.7028307,4.17337639 C12.9645761,4.17337639 16.3750484,4.27493317 20.9342478,4.47804674 C21.2485235,7.24813982 21.4056614,9.3421255 21.4056614,10.7600038 C21.4056614,12.1778821 21.2485235,14.2718677 20.9342478,17.0419608 C16.4020087,17.3005274 12.9915364,17.4298107 10.7028307,17.4298107 C8.41412502,17.4298107 5.03567539,17.3005274 0.567481776,17.0419608 C0.210757556,14.2463908 0.0323954466,12.1662684 0.0323954466,10.8015935 C0.0323954466,9.43691869 0.210757556,7.32906976 0.567481776,4.47804674 Z" id="Rectangle-13" fill="#FFFFFF"></path>
        </g>
    </g>
</svg>