<?xml version="1.0" encoding="UTF-8"?>
<svg width="24px" height="21px" viewBox="0 0 24 21" version="1.1" xmlns="http://www.w3.org/2000/svg" xmlns:xlink="http://www.w3.org/1999/xlink">
    <!-- Generator: Sketch 48.2 (47327) - http://www.bohemiancoding.com/sketch -->
    <title>Group 2 Copy</title>
    <desc>Created with Sketch.</desc>
    <defs></defs>
    <g id="nav-icons" stroke="none" stroke-width="1" fill="none" fill-rule="evenodd" transform="translate(-307.000000, -137.000000)">
        <g id="Group-2-Copy" transform="translate(308.000000, 138.000000)" stroke="#FFFFFF" stroke-width="2">
            <path d="M5.32525678,5.10802601 C5.32525678,-1.5265927 16.522583,-1.87651109 16.537745,5.10802601 C9.04482539,5.19515984 5.30732931,5.19515984 5.32525678,5.10802601 Z" id="Path-7"></path>
            <path d="M0.576585761,5.47804674 C5.14385443,5.27493317 8.57650379,5.17337639 10.8745339,5.17337639 C13.1725639,5.17337639 16.6377497,5.27493317 21.2700913,5.47804674 C21.5894089,8.24813982 21.7490677,10.3421255 21.7490677,11.7600038 C21.7490677,13.1778821 21.5894089,15.2718677 21.2700913,18.0419608 C16.6651425,18.3005274 13.1999567,18.4298107 10.8745339,18.4298107 C8.54911099,18.4298107 5.11646162,18.3005274 0.576585761,18.0419608 C0.214138694,15.2463908 0.0329151596,13.1662684 0.0329151596,11.8015935 C0.0329151596,10.4369187 0.214138694,8.32906976 0.576585761,5.47804674 Z" id="Rectangle-13"></path>
        </g>
    </g>
</svg>