<svg xmlns="http://www.w3.org/2000/svg" viewBox="0 0 512 512"><title>square-envelope</title><g id="Layer_2" data-name="Layer 2"><g id="Layer_1-2" data-name="Layer 1"><g id="square-envelope"><path d="M97.18,176.61C197.08,243.5,239.54,273.5,256,273.5h0c16.38,0,58.76-30,158.57-97.09,35.84-24.08,68.25-48.32,88.16-63.64A23.77,23.77,0,0,0,512,93.92V57A57,57,0,0,0,455,0H57A57,57,0,0,0,0,57V94.52a23.76,23.76,0,0,0,9.3,18.87C29.41,128.8,61.65,152.81,97.18,176.61Z"/><path d="M439.66,213.76C354.82,270.76,294.75,318.47,256,318.5H256c-38.81,0-99-47.7-184.08-104.68-24.25-16.25-46.75-32.38-65.14-46A4.23,4.23,0,0,0,0,171.23V455a57,57,0,0,0,57,57H455a57,57,0,0,0,57-57V170.69a4.23,4.23,0,0,0-6.75-3.4C486.8,181,464.12,197.33,439.66,213.76Z"/></g></g></g></svg>